<svg width="24" height="24" viewBox="0 0 24 24" fill="none" xmlns="http://www.w3.org/2000/svg">
<g id="Iconly/Light/Setting">
<g id="Setting">
<path id="Path_33946" fill-rule="evenodd" clip-rule="evenodd" d="M20.8067 7.62386L20.1842 6.54377C19.6577 5.62985 18.4907 5.31456 17.5755 5.83896V5.83896C17.1399 6.09559 16.6201 6.1684 16.1307 6.04133C15.6413 5.91427 15.2226 5.59776 14.9668 5.16162C14.8023 4.88439 14.7139 4.56864 14.7105 4.24628V4.24628C14.7254 3.72947 14.5304 3.22865 14.17 2.85791C13.8096 2.48718 13.3145 2.27811 12.7975 2.27832H11.5435C11.037 2.27831 10.5513 2.48016 10.194 2.83919C9.83669 3.19822 9.63717 3.68484 9.63961 4.19136V4.19136C9.6246 5.23717 8.77248 6.07706 7.72657 6.07695C7.40421 6.0736 7.08846 5.98519 6.81123 5.82065V5.82065C5.89606 5.29626 4.72911 5.61154 4.20254 6.52546L3.53435 7.62386C3.00841 8.53664 3.3194 9.70285 4.23 10.2326V10.2326C4.8219 10.5743 5.18653 11.2058 5.18653 11.8893C5.18653 12.5728 4.8219 13.2043 4.23 13.5461V13.5461C3.32056 14.0722 3.00923 15.2356 3.53435 16.1456V16.1456L4.16593 17.2348C4.41265 17.68 4.8266 18.0085 5.31619 18.1477C5.80578 18.2868 6.33064 18.2251 6.77462 17.9763V17.9763C7.21108 17.7216 7.73119 17.6518 8.21934 17.7824C8.70749 17.9131 9.12324 18.2333 9.37416 18.6719C9.5387 18.9491 9.62711 19.2649 9.63046 19.5872V19.5872C9.63046 20.6438 10.487 21.5003 11.5435 21.5003H12.7975C13.8505 21.5003 14.7055 20.6494 14.7105 19.5964V19.5964C14.7081 19.0883 14.9089 18.6003 15.2682 18.241C15.6275 17.8817 16.1155 17.6809 16.6236 17.6834C16.9452 17.692 17.2596 17.78 17.5389 17.9396V17.9396C18.4517 18.4656 19.6179 18.1546 20.1476 17.244V17.244L20.8067 16.1456C21.0618 15.7077 21.1318 15.1863 21.0012 14.6966C20.8706 14.207 20.5502 13.7896 20.111 13.5369V13.5369C19.6718 13.2842 19.3514 12.8668 19.2208 12.3772C19.0902 11.8875 19.1603 11.3661 19.4154 10.9282C19.5812 10.6386 19.8214 10.3984 20.111 10.2326V10.2326C21.0161 9.70314 21.3264 8.54374 20.8067 7.63301V7.63301V7.62386Z" stroke="#9F9F9F" stroke-width="1.5" stroke-linecap="round" stroke-linejoin="round"/>
<circle id="Ellipse_737" cx="12.175" cy="11.8891" r="2.63616" stroke="#9F9F9F" stroke-width="1.5" stroke-linecap="round" stroke-linejoin="round"/>
</g>
</g>
</svg>
