<svg width="14" height="14" viewBox="0 0 14 14" fill="none" xmlns="http://www.w3.org/2000/svg">
<path d="M7.57745 4.4541L2.52726 9.50456C2.50186 9.53004 2.48351 9.56222 2.47477 9.5968L1.91501 11.8435C1.89827 11.9112 1.91814 11.9831 1.9675 12.0324C2.00485 12.0698 2.05573 12.0905 2.10779 12.0905C2.12373 12.0905 2.14004 12.0885 2.15591 12.0845L4.40268 11.5247C4.4377 11.5159 4.46951 11.4977 4.49492 11.4723L9.54554 6.42216L7.57745 4.4541Z" fill="#F1F1F1"/>
<path d="M11.1403 3.45966L10.5335 2.8509C10.128 2.44403 9.42111 2.44443 9.01602 2.8509L8.27271 3.59659L10.397 5.72772L11.1403 4.98202C11.3429 4.77887 11.4545 4.50847 11.4545 4.22088C11.4545 3.93329 11.3429 3.66289 11.1403 3.45966Z" fill="#F1F1F1"/>
</svg>
